<svg xmlns="http://www.w3.org/2000/svg" width="196.994" height="25.005" viewBox="0 0 196.994 25.005">
  <path id="logo_qc.svg" d="M3795.74,2794.74a8.4,8.4,0,0,1,5.96,2.36.487.487,0,0,1,.03.71l-1.09,1.14a.373.373,0,0,1-.62,0,6.562,6.562,0,1,0,0,9.78.459.459,0,0,1,.6-.03l1.13,1.14a.5.5,0,0,1-.02.69,8.363,8.363,0,0,1-5.99,2.46,9.128,9.128,0,0,1,0-18.25Zm9.26.73a.478.478,0,0,1,.47-.48h1.63a.5.5,0,0,1,.47.48v14.91h6.68a.463.463,0,0,1,.46.48v1.39a.469.469,0,0,1-.46.48h-8.78a.478.478,0,0,1-.47-.48v-16.78Zm19.12-.73a9.129,9.129,0,1,1-8.85,9.15,8.983,8.983,0,0,1,8.85-9.15Zm0,15.71a6.5,6.5,0,0,0,6.41-6.56,6.4,6.4,0,0,0-12.8,0,6.5,6.5,0,0,0,6.39,6.56Zm11.92-14.98a.5.5,0,0,1,.47-.48h1.65a.471.471,0,0,1,.47.48v10.47c0,2.53,1.58,4.51,4.1,4.51a4.134,4.134,0,0,0,4.14-4.46v-10.52a.47.47,0,0,1,.46-.48h1.66a.49.49,0,0,1,.46.48v10.65a6.707,6.707,0,1,1-13.41,0v-10.65Zm17.2,0a.467.467,0,0,1,.44-.48h5.67a8.873,8.873,0,0,1,0,17.74h-5.67a.466.466,0,0,1-.44-.48Zm5.76,14.85a6.463,6.463,0,0,0,0-12.92h-3.25v12.92Zm-138.8-10.13h-1.66a4.447,4.447,0,0,0-3.49,1.44,4.6,4.6,0,0,0-1.12,3.17v.2a4.6,4.6,0,0,0,1.12,3.17,4.479,4.479,0,0,0,3.49,1.439H3724l-.67-1.08a4.1,4.1,0,0,0,.36-.36,4.6,4.6,0,0,0,1.12-3.17v-.2a4.6,4.6,0,0,0-1.12-3.17,4.418,4.418,0,0,0-3.49-1.44Zm-4.48,4.71c.04-2.3,1.34-3.47,2.91-3.47h1.48c1.58,0,2.87,1.17,2.91,3.47-.04,2.29-1.33,3.46-2.91,3.46h-1.48c-1.57,0-2.87-1.17-2.91-3.46Zm31.8-4.71v8.26a1.148,1.148,0,0,0,1.13,1.16h6.77v-1.64h-5.99a.316.316,0,0,1-.32-.32v-7.46h-1.59Zm10.43,9.42v-9.42h-1.59v9.42Zm.94-7.78h3.62v7.78h1.59v-7.78h3.61v-1.64h-8.82v1.64Zm9.76,7.78h1.59v-9.42h-1.59Zm-27.4-7.58,1.77,3.3h-2.71l-.87,1.63h4.45l1.42,2.65h1.83l-4.91-8.93a1.113,1.113,0,0,0-1.96,0l-4.91,8.93h1.83Zm36.61-1.35a1.113,1.113,0,0,0-1.96,0l-4.91,8.93h1.83l4.06-7.58,1.77,3.3h-2.71l-.87,1.63h4.45l1.42,2.65h1.83Zm-41.9-.49h-1.59v5.17a2.374,2.374,0,0,1-.89,2.11,4.171,4.171,0,0,1-2.31.5h-.55a4.11,4.11,0,0,1-2.3-.5,2.355,2.355,0,0,1-.9-2.11v-5.17h-1.59v5.17a4,4,0,0,0,1.3,3.32,5.612,5.612,0,0,0,3.49.93h.55a5.579,5.579,0,0,0,3.48-.93,4.033,4.033,0,0,0,1.311-3.32Zm-43.79,12.14a12.678,12.678,0,0,0,0-17.7,12.4,12.4,0,0,0-21.17,8.87,12.227,12.227,0,0,0,3.63,8.83,12.375,12.375,0,0,0,8.75,3.67h10.39l-2.03-3.25c.14-.14.29-.28.43-.42Zm-15.5-1.9a9.828,9.828,0,0,1-2.79-6.93,9.993,9.993,0,0,1,2.79-7,9.291,9.291,0,0,1,13.429,0,9.935,9.935,0,0,1,2.78,7,9.747,9.747,0,0,1-2.78,6.93,9.223,9.223,0,0,1-13.43,0Zm27.24-2.51a7.971,7.971,0,0,1-1.85,3.02,7.605,7.605,0,0,1-5.54,2.39,7.728,7.728,0,0,1-2.16-.31.01.01,0,0,1,0,.007.01.01,0,0,1-.007,0l1.15,1.83.7,1.13c.11,0,.21.01.32.01a10.719,10.719,0,0,0,7.57-3.16,10.417,10.417,0,0,0,2.4-3.69Zm-7.39-10.83a7.609,7.609,0,0,1,5.54,2.36,8.233,8.233,0,0,1,1.861,3.07l2.57-1.23a10.4,10.4,0,0,0-2.4-3.71,10.729,10.729,0,0,0-7.57-3.13,10.064,10.064,0,0,0-1.65.13,13.863,13.863,0,0,1,1.54,2.51h.11Z" transform="translate(-3670.999 -2790.996)" fill-rule="evenodd"/>
</svg>
