<svg xmlns="http://www.w3.org/2000/svg" width="475.001" height="60.292" viewBox="0 0 475.001 60.292">
  <path id="logo_qc.svg" d="M3971.779,2800.024a20.261,20.261,0,0,1,14.372,5.691,1.175,1.175,0,0,1,.072,1.711l-2.628,2.749a.9.9,0,0,1-1.5,0,15.821,15.821,0,1,0,0,23.582,1.107,1.107,0,0,1,1.448-.072l2.724,2.748a1.206,1.206,0,0,1-.048,1.663,20.169,20.169,0,0,1-14.443,5.932,22.01,22.01,0,0,1,0-44Zm22.328,1.76a1.153,1.153,0,0,1,1.134-1.157h3.929a1.206,1.206,0,0,1,1.134,1.157v35.951h16.106a1.116,1.116,0,0,1,1.11,1.158v3.351a1.13,1.13,0,0,1-1.108,1.157h-21.172a1.152,1.152,0,0,1-1.133-1.157v-40.461Zm46.1-1.76a22.013,22.013,0,1,1-21.339,22.063,21.66,21.66,0,0,1,21.339-22.062Zm0,37.881a15.674,15.674,0,0,0,15.455-15.818,15.432,15.432,0,0,0-30.864,0,15.672,15.672,0,0,0,15.408,15.817Zm28.742-36.121a1.2,1.2,0,0,1,1.133-1.157h3.979a1.134,1.134,0,0,1,1.132,1.156v25.247c0,6.1,3.809,10.875,9.886,10.875a9.969,9.969,0,0,0,9.982-10.755v-25.366a1.132,1.132,0,0,1,1.109-1.157h4a1.181,1.181,0,0,1,1.109,1.157v25.68a16.172,16.172,0,1,1-32.334,0v-25.68Zm41.474,0a1.123,1.123,0,0,1,1.061-1.157h13.67a21.395,21.395,0,0,1,0,42.775h-13.672a1.123,1.123,0,0,1-1.06-1.157Zm13.888,35.807a15.585,15.585,0,0,0,0-31.154h-7.836v31.153Zm-334.681-24.426h-4a10.724,10.724,0,0,0-8.416,3.471,11.093,11.093,0,0,0-2.7,7.644v.483a11.09,11.09,0,0,0,2.7,7.643,10.8,10.8,0,0,0,8.415,3.471H3798.8l-1.615-2.6a10,10,0,0,0,.868-.868,11.089,11.089,0,0,0,2.7-7.644v-.482a11.1,11.1,0,0,0-2.7-7.644,10.655,10.655,0,0,0-8.416-3.472Zm-10.8,11.357c.1-5.546,3.231-8.367,7.016-8.367h3.569c3.81,0,6.921,2.821,7.016,8.367-.1,5.522-3.207,8.343-7.016,8.343h-3.569c-3.785,0-6.92-2.822-7.016-8.344Zm76.677-11.357v19.917a2.769,2.769,0,0,0,2.725,2.8h16.323v-3.954h-14.443a.761.761,0,0,1-.771-.772v-17.987h-3.834Zm25.149,22.714v-22.714h-3.834v22.714Zm2.266-18.759h8.73v18.759h3.833V2817.12h8.705v-3.954h-21.267v3.954Zm23.534,18.759h3.834v-22.714h-3.834ZM3840.39,2817.6l4.268,7.957h-6.535l-2.1,3.93h10.73l3.423,6.39h4.413l-11.839-21.532a2.683,2.683,0,0,0-4.726,0l-11.84,21.532h4.413Zm88.276-3.255a2.683,2.683,0,0,0-4.725,0l-11.84,21.532h4.412l9.791-18.278,4.268,7.958h-6.535l-2.1,3.93h10.73l3.423,6.389h4.414Zm-101.031-1.182H3823.8v12.466a5.72,5.72,0,0,1-2.145,5.088,10.058,10.058,0,0,1-5.571,1.2h-1.326a9.91,9.91,0,0,1-5.547-1.2,5.68,5.68,0,0,1-2.17-5.088v-12.466h-3.834v12.466a9.644,9.644,0,0,0,3.135,8.005,13.531,13.531,0,0,0,8.416,2.242h1.326a13.451,13.451,0,0,0,8.391-2.243,9.723,9.723,0,0,0,3.16-8Zm-105.589,29.272a30.57,30.57,0,0,0,0-42.679A29.9,29.9,0,0,0,3671,2821.146a29.483,29.483,0,0,0,8.753,21.291,29.841,29.841,0,0,0,21.1,8.85H3725.9l-4.9-7.837c.338-.337.7-.675,1.038-1.012Zm-37.374-4.581a23.693,23.693,0,0,1-6.728-16.71,24.091,24.091,0,0,1,6.728-16.879,22.4,22.4,0,0,1,32.381,0,23.959,23.959,0,0,1,6.7,16.879,23.5,23.5,0,0,1-6.7,16.71,22.237,22.237,0,0,1-32.382,0Zm65.681-6.052a19.216,19.216,0,0,1-4.462,7.281,18.339,18.339,0,0,1-13.358,5.763,18.623,18.623,0,0,1-5.208-.749.027.027,0,0,1-.007.017.024.024,0,0,1-.017.007l2.774,4.414,1.687,2.724c.266,0,.507.024.772.024a25.847,25.847,0,0,0,18.254-7.619,25.128,25.128,0,0,0,5.787-8.9Zm-17.819-26.114a18.351,18.351,0,0,1,13.358,5.69,19.846,19.846,0,0,1,4.487,7.4l6.2-2.966a25.082,25.082,0,0,0-5.786-8.946,25.872,25.872,0,0,0-18.255-7.547,24.286,24.286,0,0,0-3.978.314,33.436,33.436,0,0,1,3.714,6.051h.265Z" transform="translate(-3670.999 -2790.995)" fill="#fff" fill-rule="evenodd"/>
</svg>
